<svg xmlns="http://www.w3.org/2000/svg" viewBox="0 0 120 60">
  <defs>
    <linearGradient id="g" x1="0" x2="1" y1="0" y2="1">
      <stop offset="0" stop-color="#ffb6d5"/>
      <stop offset="1" stop-color="#ff6fa9"/>
    </linearGradient>
    <filter id="s" x="-20%" y="-20%" width="140%" height="140%">
      <feDropShadow dx="0" dy="2" stdDeviation="2" flood-color="#ff3b6b" flood-opacity=".35"/>
    </filter>
  </defs>
  <g filter="url(#s)">
    <ellipse cx="60" cy="30" rx="12" ry="12" fill="#fff0f6" stroke="#ff6fa9" stroke-width="3"/>
    <path d="M58 30c-12 4-26 14-38 14-6 0-12-6-12-14s6-14 12-14c12 0 26 10 38 14" fill="url(#g)" stroke="#ff6fa9" stroke-width="3"/>
    <path d="M62 30c12 4 26 14 38 14 6 0 12-6 12-14s-6-14-12-14c-12 0-26 10-38 14" fill="url(#g)" stroke="#ff6fa9" stroke-width="3"/>
  </g>
</svg>